<svg width="256" height="256" viewBox="0 0 256 256" fill="none" xmlns="http://www.w3.org/2000/svg">
<path d="M45.2773 192.328C39.7878 192.328 35.3385 191.354 31.9297 189.406C28.5208 187.414 26.0195 184.625 24.4258 181.039C22.8763 177.409 22.1016 173.137 22.1016 168.223V153.547H38.7695V166.363C38.7695 169.418 39.1458 171.986 39.8984 174.066C40.651 176.103 42.444 177.121 45.2773 177.121C47.8008 177.121 49.5273 176.169 50.457 174.266C51.431 172.362 51.918 169.484 51.918 165.633V135.75C51.918 131.943 51.5195 128.888 50.7227 126.586C49.9258 124.24 48.1549 123.066 45.4102 123.066C43.1966 123.066 41.4922 123.996 40.2969 125.855C39.1016 127.715 38.5039 130.57 38.5039 134.422L22.832 133.094V74.125H66.0625V90.0625H39.2344V113.77C40.0755 112.087 41.6029 110.759 43.8164 109.785C46.0299 108.767 48.4206 108.258 50.9883 108.258C55.681 108.258 59.3333 109.63 61.9453 112.375C64.6016 115.12 66.4609 119.326 67.5234 124.992C68.6302 130.659 69.1836 137.875 69.1836 146.641V149.031C69.1836 156.38 68.9401 162.777 68.4531 168.223C67.9661 173.668 66.9258 178.184 65.332 181.77C63.7826 185.311 61.4141 187.967 58.2266 189.738C55.0391 191.465 50.7227 192.328 45.2773 192.328ZM110.488 192.395C104.113 192.395 98.9779 191.089 95.082 188.477C91.2305 185.865 88.4193 182.102 86.6484 177.188C84.9219 172.273 84.0586 166.363 84.0586 159.457V103.609C84.0586 96.8802 84.944 91.2357 86.7148 86.6758C88.5299 82.0716 91.3854 78.5964 95.2812 76.25C99.1771 73.9036 104.246 72.7305 110.488 72.7305C116.73 72.7305 121.777 73.9036 125.629 76.25C129.525 78.5964 132.38 82.0716 134.195 86.6758C136.01 91.2357 136.918 96.8802 136.918 103.609V159.457C136.918 164.637 136.431 169.263 135.457 173.336C134.483 177.409 132.956 180.862 130.875 183.695C128.794 186.529 126.072 188.698 122.707 190.203C119.342 191.664 115.27 192.395 110.488 192.395ZM110.422 177.055C111.706 177.055 112.879 176.855 113.941 176.457C115.004 176.014 115.911 175.195 116.664 174C117.461 172.805 118.059 171.078 118.457 168.82C118.9 166.518 119.121 163.508 119.121 159.789V102.879C119.121 98.5404 118.723 95.3307 117.926 93.25C117.129 91.125 116.066 89.7305 114.738 89.0664C113.41 88.4023 111.971 88.0703 110.422 88.0703C108.917 88.0703 107.5 88.3802 106.172 89C104.888 89.6198 103.826 90.9701 102.984 93.0508C102.188 95.1315 101.789 98.3854 101.789 102.812V159.789C101.789 163.552 101.966 166.585 102.32 168.887C102.719 171.145 103.294 172.871 104.047 174.066C104.799 175.262 105.707 176.059 106.77 176.457C107.832 176.855 109.049 177.055 110.422 177.055ZM156.773 120.277L163.016 91.7891H152.855V73.1289H176.031V91.1914L167 120.277H156.773ZM212.555 192.262C204.542 192.262 198.587 189.982 194.691 185.422C190.796 180.862 188.848 173.402 188.848 163.043V156.602H205.383V164.637C205.383 168.975 205.914 172.273 206.977 174.531C208.039 176.789 209.766 177.918 212.156 177.918C214.458 177.918 216.163 177.143 217.27 175.594C218.376 174.044 218.93 171.366 218.93 167.559C218.93 165.345 218.598 163.198 217.934 161.117C217.314 159.036 216.318 157 214.945 155.008C213.617 152.971 211.891 151.001 209.766 149.098L200.801 140.996C196.684 137.277 193.607 133.271 191.57 128.977C189.534 124.638 188.516 119.857 188.516 114.633C188.516 106.177 190.486 100.001 194.426 96.1055C198.41 92.1654 204.298 90.1953 212.09 90.1953C217.137 90.1953 221.32 91.1471 224.641 93.0508C227.961 94.9102 230.44 97.9427 232.078 102.148C233.716 106.354 234.535 111.999 234.535 119.082V124.527H218.797V117.953C218.797 113.57 218.288 110.25 217.27 107.992C216.296 105.734 214.613 104.605 212.223 104.605C209.876 104.605 208.15 105.27 207.043 106.598C205.936 107.882 205.339 110.161 205.25 113.438C205.206 115.208 205.427 116.957 205.914 118.684C206.401 120.366 207.154 122.026 208.172 123.664C209.234 125.258 210.607 126.829 212.289 128.379L221.719 136.945C226.677 141.417 230.329 146.087 232.676 150.957C235.066 155.827 236.262 161.095 236.262 166.762C236.262 175.129 234.358 181.482 230.551 185.82C226.743 190.115 220.745 192.262 212.555 192.262Z" fill="black"/>
</svg>
