<svg width="57" height="18" viewBox="0 0 57 18" fill="none" xmlns="http://www.w3.org/2000/svg">
<path d="M6.42 15V3.06H3.14L0.1 5.7V9.2L3.14 6.56V15H6.42ZM19.0517 7.6C19.0517 4.48 16.7717 2.94 14.1317 2.94C11.4917 2.94 9.21172 4.48 9.21172 7.6C9.21172 10.62 11.2317 12.08 13.1517 12.08C13.7717 12.08 14.2117 12.02 14.5517 11.84L11.2517 17.62H14.7917L17.4717 12.7C18.4917 10.82 19.0517 9.56 19.0517 7.6ZM15.7717 7.6C15.7717 8.78 15.0317 9.42 14.1317 9.42C13.2317 9.42 12.4917 8.78 12.4917 7.6C12.4917 6.42 13.2317 5.78 14.1317 5.78C15.0317 5.78 15.7717 6.42 15.7717 7.6ZM30.2422 12.44C30.2422 11.1 30.0822 9.82 28.9222 8.66C28.3422 8.08 27.4022 7.66 26.1622 7.66C25.2822 7.66 24.5222 8 24.2422 8.22V6.02H29.9422V3.06H21.2622V11.44H24.2822C24.4222 11.06 24.6622 10.42 25.6222 10.42C26.4222 10.42 26.9622 10.86 26.9622 12.44C26.9622 13.28 26.8422 13.8 26.5422 14.1C26.2822 14.36 26.0222 14.46 25.6222 14.46C24.7822 14.46 24.3822 13.9 24.2822 12.96H21.0022C21.0822 14 21.2222 15.16 22.2422 16.18C22.8622 16.8 24.0222 17.42 25.6222 17.42C27.2222 17.42 28.3022 16.82 28.9222 16.2C29.9822 15.14 30.2422 14.16 30.2422 12.44ZM41.308 10.68V7.38C41.308 4.44 39.088 2.94 36.728 2.94C34.368 2.94 32.148 4.44 32.148 7.38V10.68C32.148 13.62 34.368 15.12 36.728 15.12C39.088 15.12 41.308 13.62 41.308 10.68ZM38.028 10.7C38.028 11.7 37.428 12.16 36.728 12.16C36.028 12.16 35.428 11.7 35.428 10.7V7.38C35.428 6.38 36.028 5.9 36.728 5.9C37.428 5.9 38.028 6.38 38.028 7.38V10.7ZM46.7013 3.7V0.76H43.4213V6.06L46.7013 3.7ZM56.1963 11.48C56.1963 9.76 55.2163 8.42 52.9563 8.2L51.2963 8.04C50.5563 7.96 50.5963 7.56 50.5963 7.44C50.5963 7.2 50.8563 6.82 51.6562 6.82C52.4963 6.82 53.3963 6.92 53.9363 7.46L55.9563 5.44C54.8963 4.38 53.4763 4.12 51.7163 4.12C49.5763 4.12 47.4363 5.3 47.4363 7.68C47.4363 9.78 48.6963 10.62 50.5563 10.8L52.2163 10.96C52.8563 11.02 52.9963 11.34 52.9963 11.64C52.9963 12.2 52.0763 12.34 51.5963 12.34C51.0363 12.34 49.8763 12.34 48.9763 11.44L46.8563 13.56C48.3363 15.04 49.9163 15.12 51.5363 15.12C54.0363 15.12 56.1963 14.02 56.1963 11.48Z" fill="grey"/>
</svg>
